<svg width="195" height="196" viewBox="0 0 195 196" fill="none" xmlns="http://www.w3.org/2000/svg">
<g opacity="0.6">
<path d="M97.2257 97.962C97.3106 98.5336 97.4252 99.3747 97.5433 100.45C97.7796 102.6 98.0302 105.685 98.0862 109.423C98.1982 116.899 97.5318 126.978 94.4225 137.399C91.3132 147.819 86.3475 156.615 82.157 162.808C80.0621 165.904 78.1615 168.347 76.7857 170.016C76.0979 170.851 75.5411 171.492 75.1568 171.923C75.0636 172.028 74.9796 172.12 74.9073 172.199C74.8906 172.093 74.8705 171.97 74.8499 171.832C74.765 171.26 74.6504 170.419 74.5323 169.344C74.296 167.194 74.0454 164.108 73.9894 160.371C73.8774 152.894 74.5438 142.815 77.6531 132.395C80.7624 121.974 85.7281 113.178 89.9186 106.986C92.0135 103.89 93.9141 101.446 95.2899 99.7772C95.9777 98.9428 96.5345 98.302 96.9188 97.8704C97.0122 97.7654 97.0961 97.6733 97.1686 97.5933C97.1853 97.7 97.205 97.8229 97.2257 97.962Z" fill="#F5F4F0" stroke="#C0CDBD" stroke-width="0.5"/>
<path d="M119.528 23.2184C119.613 23.79 119.727 24.6312 119.846 25.7061C120.082 27.856 120.332 30.9418 120.388 34.6793C120.5 42.1556 119.834 52.2346 116.725 62.6551C113.615 73.0757 108.65 81.8718 104.459 88.0644C102.364 91.1601 100.464 93.6039 99.0879 95.2729C98.4001 96.1072 97.8434 96.7481 97.4591 97.1797C97.3659 97.2844 97.2819 97.376 97.2096 97.4558C97.1928 97.3494 97.1727 97.2268 97.1521 97.0881C97.0672 96.5165 96.9527 95.6753 96.8345 94.6005C96.5983 92.4505 96.3476 89.3648 96.2916 85.6273C96.1797 78.151 96.846 68.072 99.9553 57.6514C103.065 47.2309 108.03 38.4347 112.221 32.2422C114.316 29.1465 116.216 26.7026 117.592 25.0337C118.28 24.1993 118.837 23.5585 119.221 23.1268C119.314 23.0219 119.398 22.9298 119.471 22.8498C119.488 22.9564 119.507 23.0794 119.528 23.2184Z" fill="#F5F4F0" stroke="#C0CDBD" stroke-width="0.5"/>
<path d="M97.0037 97.8245C97.5753 97.7395 98.4165 97.625 99.4913 97.5069C101.641 97.2706 104.727 97.0199 108.465 96.964C115.941 96.852 126.02 97.5184 136.44 100.628C146.861 103.737 155.657 108.703 161.85 112.893C164.945 114.988 167.389 116.889 169.058 118.264C169.893 118.952 170.533 119.509 170.965 119.893C171.07 119.987 171.161 120.071 171.241 120.143C171.135 120.16 171.012 120.18 170.873 120.2C170.302 120.285 169.461 120.4 168.386 120.518C166.236 120.754 163.15 121.005 159.413 121.061C151.936 121.173 141.857 120.506 131.437 117.397C121.016 114.288 112.22 109.322 106.027 105.132C102.932 103.037 100.488 101.136 98.819 99.7603C97.9846 99.0725 97.3437 98.5157 96.9121 98.1314C96.8071 98.0379 96.7151 97.9541 96.6351 97.8816C96.7417 97.8648 96.8647 97.8451 97.0037 97.8245Z" fill="#F5F4F0" stroke="#C0CDBD" stroke-width="0.5"/>
<path d="M23.2183 75.8081C23.7899 75.7232 24.6311 75.6086 25.7059 75.4905C27.8559 75.2542 30.9416 75.0036 34.6792 74.9476C42.1555 74.8356 52.2345 75.502 62.655 78.6113C73.0756 81.7206 81.8717 86.6863 88.0642 90.8768C91.16 92.9718 93.6038 94.8723 95.2728 96.2481C96.1071 96.9359 96.748 97.4927 97.1796 97.877C97.2843 97.9702 97.3759 98.0542 97.4557 98.1265C97.3493 98.1432 97.2267 98.1633 97.088 98.1839C96.5164 98.2688 95.6752 98.3834 94.6004 98.5015C92.4504 98.7378 89.3647 98.9885 85.6272 99.0444C78.1508 99.1564 68.0718 98.49 57.6513 95.3807C47.2308 92.2714 38.4346 87.3057 32.2421 83.1152C29.1464 81.0203 26.7025 79.1197 25.0336 77.7439C24.1992 77.0561 23.5583 76.4993 23.1267 76.1151C23.0217 76.0216 22.9297 75.9377 22.8497 75.8653C22.9563 75.8485 23.0793 75.8288 23.2183 75.8081Z" fill="#F5F4F0" stroke="#C0CDBD" stroke-width="0.5"/>
<circle cx="97.3318" cy="97.0459" r="4" transform="rotate(16.6143 97.3318 97.0459)" fill="#C0CDBD"/>
</g>
</svg>
