<svg width="304" height="20" viewBox="0 0 304 20" fill="none" xmlns="http://www.w3.org/2000/svg">
<path d="M0 10.5C2.05 10.5333 4.1 10.565 6.15 10.595C24.6 10.865 43.05 11 61.5 11C79.95 11 98.4 10.865 116.85 10.595C118.9 10.565 120.95 10.5333 123 10.5C120.95 10.4667 118.9 10.435 116.85 10.405C98.4 10.135 79.95 10 61.5 10C43.05 10 24.6 10.135 6.15 10.405C4.1 10.435 2.05 10.4667 0 10.5Z" fill="#6F916F"/>
<path d="M181 10.5C183.05 10.5333 185.1 10.565 187.15 10.595C205.6 10.865 224.05 11 242.5 11C260.95 11 279.4 10.865 297.85 10.595C299.9 10.565 301.95 10.5333 304 10.5C301.95 10.4667 299.9 10.435 297.85 10.405C279.4 10.135 260.95 10 242.5 10C224.05 10 205.6 10.135 187.15 10.405C185.1 10.435 183.05 10.4667 181 10.5Z" fill="#6F916F"/>
<path d="M147.5 1C144.463 1 142 3.4625 142 6.5C142 12 148.5 17 152 18.163C155.5 17 162 12 162 6.5C162 3.4625 159.537 1 156.5 1C154.64 1 152.995 1.9235 152 3.337C151.493 2.61469 150.819 2.0252 150.036 1.61841C149.252 1.21162 148.383 0.999502 147.5 1Z" stroke="#6B8E6B" stroke-width="2" stroke-linecap="round" stroke-linejoin="round"/>
</svg>
