<svg width="33" height="33" viewBox="0 0 33 33" fill="none" xmlns="http://www.w3.org/2000/svg">
<path d="M16.5 6.86133C17.2679 9.22733 18.4746 11.2539 20.1104 12.8896C21.7459 14.5252 23.7721 15.7321 26.1377 16.5C23.7721 17.2679 21.7459 18.4748 20.1104 20.1104C18.4748 21.7459 17.2679 23.7721 16.5 26.1377C15.7321 23.7721 14.5252 21.7459 12.8896 20.1104C11.2539 18.4746 9.22733 17.2679 6.86133 16.5C9.22733 15.7321 11.2539 14.5254 12.8896 12.8896C14.5254 11.2539 15.7321 9.22733 16.5 6.86133Z" stroke="#6B8E6B" stroke-width="2"/>
<circle cx="8" cy="26" r="2.5" stroke="#6B8E6B"/>
<path d="M27.0276 10V3H27.9724V10H27.0276ZM24 6.96998V6.03002H31V6.96998H24Z" fill="#6B8E6B"/>
</svg>
